<svg id="twitter-logo-silhouette" xmlns="http://www.w3.org/2000/svg" width="18" height="13.996" viewBox="0 0 18 13.996">
  <path id="Path" d="M18,1.656a7.632,7.632,0,0,1-2.12.557A3.582,3.582,0,0,0,17.5.258a7.649,7.649,0,0,1-2.346.858A3.76,3.76,0,0,0,12.461,0,3.616,3.616,0,0,0,8.769,3.534a3.4,3.4,0,0,0,.1.805A10.645,10.645,0,0,1,1.254.646a3.394,3.394,0,0,0-.5,1.777A3.5,3.5,0,0,0,2.4,5.364,3.819,3.819,0,0,1,.724,4.921v.044A3.581,3.581,0,0,0,3.686,8.431a3.9,3.9,0,0,1-.973.124,3.7,3.7,0,0,1-.7-.066,3.678,3.678,0,0,0,3.449,2.455A7.621,7.621,0,0,1,.881,12.454,8.194,8.194,0,0,1,0,12.406,10.778,10.778,0,0,0,5.66,14,10.2,10.2,0,0,0,16.165,3.94l-.012-.458A7.209,7.209,0,0,0,18,1.656Z"/>
</svg>
